<?xml version="1.0" encoding="UTF-8"?>
<svg version="1.1" xmlns="http://www.w3.org/2000/svg" width="111" height="108">
<path d="M0 0 C10.31159634 7.64083983 16.86132716 18.02343365 19.96484375 30.4375 C20.64317442 37.49213893 20.8215291 44.73866593 19.27734375 51.6875 C13.8724011 50.12038645 10.14719218 46.46144654 5.96484375 42.875 C-4.83078114 33.64228059 -13.17228925 28.15839575 -27.72265625 28.6875 C-26.24300417 32.71111529 -24.18417728 33.78139839 -20.41015625 35.625 C-15.44087779 38.19756225 -11.30307062 40.52667126 -8.72265625 45.6875 C-8.09718522 51.29623207 -8.09930734 56.43296485 -11.34375 61.21484375 C-15.51549702 65.6702223 -20.31420707 66.92815552 -26.28515625 67.125 C-32.81850541 66.83623319 -37.48709896 65.31787407 -41.97265625 60.4375 C-43.93487226 58.0053849 -45.16952479 55.80784865 -46.22265625 52.875 C-47.43557637 49.40156967 -47.43557637 49.40156967 -50.91015625 48.25 C-52.30234375 47.9715625 -52.30234375 47.9715625 -53.72265625 47.6875 C-53.22025726 52.58589012 -51.61514972 56.37444428 -49.46484375 60.734375 C-49.09746094 61.70117188 -49.09746094 61.70117188 -48.72265625 62.6875 C-49.05265625 63.3475 -49.38265625 64.0075 -49.72265625 64.6875 C-50.81578125 64.666875 -51.90890625 64.64625 -53.03515625 64.625 C-56.66649816 64.50205548 -56.66649816 64.50205548 -59.72265625 65.6875 C-55.24185295 68.14044364 -50.86116561 69.56411721 -45.91015625 70.6875 C-41.43820453 71.74020303 -37.09503582 72.82319882 -32.78515625 74.4375 C-24.73408925 77.23181435 -16.01772424 75.35085461 -7.78515625 74.1875 C-5.73451019 73.90526601 -3.68373513 73.62396715 -1.6328125 73.34375 C-0.73699463 73.21806641 0.15882324 73.09238281 1.08178711 72.96289062 C3.27734375 72.6875 3.27734375 72.6875 5.27734375 72.6875 C3.49706434 78.02833823 -1.9696796 80.08959972 -6.72265625 82.6875 C-17.73711842 87.97198394 -30.5539136 88.60479688 -42.22265625 85.0625 C-47.58988089 82.98628964 -52.14261823 80.13912286 -56.72265625 76.6875 C-57.58890625 76.11 -58.45515625 75.5325 -59.34765625 74.9375 C-67.99166766 66.74843656 -74.25772554 54.71192434 -74.875 42.73046875 C-74.93170227 37.62096397 -74.83621273 32.69850416 -73.72265625 27.6875 C-69.19383502 29.14140202 -66.09087076 31.70373894 -62.59765625 34.8125 C-50.89378539 44.93526306 -42.67604605 51.20677851 -26.72265625 50.6875 C-27.78123735 47.5323784 -28.68128563 46.71141913 -31.62109375 45.01171875 C-32.76835938 44.47160156 -33.915625 43.93148437 -35.09765625 43.375 C-40.76716936 40.43687663 -43.65768146 38.7737415 -45.72265625 32.6875 C-46.56761611 26.87840094 -45.14796255 22.36299228 -41.72265625 17.6875 C-36.49340785 13.60868625 -31.3309411 12.45509854 -24.72265625 12.6875 C-18.62669245 13.61855556 -14.76088406 15.85447577 -10.984375 20.70703125 C-9.29223662 23.36311224 -8.0660217 26.13612862 -6.97265625 29.0859375 C-5.72346291 31.03235208 -5.72346291 31.03235208 -2.59765625 31.4140625 C-1.17453125 31.54941406 -1.17453125 31.54941406 0.27734375 31.6875 C-0.08359375 30.70007812 -0.44453125 29.71265625 -0.81640625 28.6953125 C-1.28532306 27.40110209 -1.75406394 26.10682794 -2.22265625 24.8125 C-2.58037109 23.83603516 -2.58037109 23.83603516 -2.9453125 22.83984375 C-4.72265625 17.9140625 -4.72265625 17.9140625 -4.72265625 15.6875 C-3.65015625 15.72875 -2.57765625 15.77 -1.47265625 15.8125 C2.05457862 15.6949255 3.33841675 15.33902093 6.27734375 13.6875 C0.1827546 11.54904767 -5.95889165 9.76752848 -12.21777344 8.18212891 C-15.64796961 7.30015193 -18.80641871 6.25174001 -22.03515625 4.8125 C-30.0558307 1.96002304 -40.28319126 5.00699807 -48.46875 6.26171875 C-51.25424899 6.62620781 -53.85762807 6.79311582 -56.66015625 6.75 C-57.43230469 6.74097656 -58.20445313 6.73195313 -59 6.72265625 C-59.56847656 6.71105469 -60.13695312 6.69945312 -60.72265625 6.6875 C-60.72265625 6.0275 -60.72265625 5.3675 -60.72265625 4.6875 C-58.60676766 3.10133601 -56.51417606 1.66121071 -54.28515625 0.25 C-53.64715088 -0.15669922 -53.00914551 -0.56339844 -52.35180664 -0.98242188 C-47.6706863 -3.89002345 -43.13261982 -6.10789579 -37.72265625 -7.3125 C-36.53349609 -7.58126953 -36.53349609 -7.58126953 -35.3203125 -7.85546875 C-22.70765508 -10.0745378 -10.66323357 -6.91295531 0 0 Z " fill="#520A7C" transform="translate(82.72265625,14.3125)"/>
<path d="M0 0 C4.77299053 1.50772972 7.88259341 4.18952721 11.5625 7.4375 C12.68796248 8.4163308 13.81424449 9.39422022 14.94140625 10.37109375 C15.46621582 10.82983887 15.99102539 11.28858398 16.53173828 11.76123047 C17.77337799 12.80879945 19.08215904 13.77598721 20.40234375 14.72265625 C20.92957031 15.14417969 21.45679687 15.56570312 22 16 C22 16.66 22 17.32 22 18 C21.34 18 20.68 18 20 18 C20.41836483 23.7525164 21.65533524 27.96607734 24.2578125 33.1171875 C24.50273438 33.73851562 24.74765625 34.35984375 25 35 C24.67 35.66 24.34 36.32 24 37 C22.3603125 36.9690625 22.3603125 36.9690625 20.6875 36.9375 C17.05615809 36.81455548 17.05615809 36.81455548 14 38 C18.4808033 40.45294364 22.86149064 41.87661721 27.8125 43 C32.28445172 44.05270303 36.62762043 45.13569882 40.9375 46.75 C48.988567 49.54431435 57.70493201 47.66335461 65.9375 46.5 C67.98814606 46.21776601 70.03892112 45.93646715 72.08984375 45.65625 C72.98566162 45.53056641 73.88147949 45.40488281 74.80444336 45.27539062 C77 45 77 45 79 45 C77.21972059 50.34083823 71.75297665 52.40209972 67 55 C55.98553783 60.28448394 43.16874265 60.91729688 31.5 57.375 C26.13277536 55.29878964 21.58003802 52.45162286 17 49 C16.13375 48.4225 15.2675 47.845 14.375 47.25 C5.73098859 39.06093656 -0.53506929 27.02442434 -1.15234375 15.04296875 C-1.20904602 9.93346397 -1.11355648 5.01100416 0 0 Z " fill="#4B0875" transform="translate(9,42)"/>
<path d="M0 0 C0.99 0.33 1.98 0.66 3 1 C1.515 2.485 1.515 2.485 0 4 C0.66 4.33 1.32 4.66 2 5 C2 4.34 2 3.68 2 3 C4.64 3.33 7.28 3.66 10 4 C10 4.33 10 4.66 10 5 C4.61509359 5.91657981 -0.54230189 6.11138159 -6 6 C-6 5.34 -6 4.68 -6 4 C-3.1875 1.8125 -3.1875 1.8125 0 0 Z " fill="#6F2493" transform="translate(28,15)"/>
<path d="M0 0 C3.3 1.65 6.6 3.3 10 5 C9.01 5.495 9.01 5.495 8 6 C8 7.98 8 9.96 8 12 C6.10786631 9.61426621 4.97608217 7.92824652 4 5 C0.99992729 3.29144978 0.99992729 3.29144978 -2 2 C-1.34 1.34 -0.68 0.68 0 0 Z " fill="#7C4C99" transform="translate(31,59)"/>
<path d="M0 0 C0.66 0 1.32 0 2 0 C2.309375 0.928125 2.309375 0.928125 2.625 1.875 C4.54775888 4.84653645 6.66594527 5.13024659 10 6 C9.01 6.99 8.02 7.98 7 9 C5.72881136 8.20890398 4.45806377 7.41709922 3.1875 6.625 C2.47980469 6.18414062 1.77210937 5.74328125 1.04296875 5.2890625 C-0.65432039 4.21811524 -2.33014358 3.11323761 -4 2 C-2.68 2 -1.36 2 0 2 C0 1.34 0 0.68 0 0 Z " fill="#794C96" transform="translate(73,41)"/>
<path d="M0 0 C2 2 2 2 2.265625 4.2421875 C2.26046875 5.11101563 2.2553125 5.97984375 2.25 6.875 C2.25515625 7.73867187 2.2603125 8.60234375 2.265625 9.4921875 C1.98890649 12.10473577 1.3185995 13.7500088 0 16 C-0.33 16 -0.66 16 -1 16 C-0.67 10.72 -0.34 5.44 0 0 Z " fill="#764D94" transform="translate(72,58)"/>
<path d="M0 0 C-1.4375 1.5625 -1.4375 1.5625 -4 3 C-7.05380927 2.96846324 -9.99653222 2.53266629 -13 2 C-13 1.67 -13 1.34 -13 1 C-8.61414671 0.29826347 -4.44209357 -0.10834375 0 0 Z " fill="#735091" transform="translate(76,89)"/>
<path d="M0 0 C1.11375 0.598125 2.2275 1.19625 3.375 1.8125 C4.00148438 2.14894531 4.62796875 2.48539063 5.2734375 2.83203125 C7 4 7 4 9 7 C8.01 7.495 8.01 7.495 7 8 C6.67 7.34 6.34 6.68 6 6 C3.98330173 4.86649466 3.98330173 4.86649466 2 4 C2 3.34 2 2.68 2 2 C1.34 2 0.68 2 0 2 C0 1.34 0 0.68 0 0 Z " fill="#773996" transform="translate(16,47)"/>
<path d="M0 0 C1.953125 0.35807292 3.90625 0.71614583 5.859375 1.07421875 C5.859375 1.40421875 5.859375 1.73421875 5.859375 2.07421875 C-0.080625 2.56921875 -0.080625 2.56921875 -6.140625 3.07421875 C-2.140625 0.07421875 -2.140625 0.07421875 0 0 Z " fill="#884AA5" transform="translate(46.140625,15.92578125)"/>
<path d="M0 0 C0.99 0.33 1.98 0.66 3 1 C1.25 6.75 1.25 6.75 -1 9 C-0.67 6.03 -0.34 3.06 0 0 Z " fill="#5E1285" transform="translate(9,42)"/>
</svg>
