<?xml version="1.0" standalone="no"?>
<!DOCTYPE svg PUBLIC "-//W3C//DTD SVG 20010904//EN"
 "http://www.w3.org/TR/2001/REC-SVG-20010904/DTD/svg10.dtd">
<svg version="1.0" xmlns="http://www.w3.org/2000/svg"
 width="1710.000000pt" height="434.000000pt" viewBox="0 0 1710.000000 434.000000"
 preserveAspectRatio="xMidYMid meet">

<g transform="translate(0.000000,434.000000) scale(0.100000,-0.100000)"
fill="#000000" stroke="none">
<path d="M2045 4059 c-302 -29 -612 -141 -870 -314 -93 -62 -254 -194 -263
-214 -1 -3 58 -3 130 1 133 7 283 27 708 92 260 40 384 56 426 56 27 0 310
-91 479 -154 39 -14 231 -62 428 -106 381 -85 423 -99 499 -171 43 -41 48 -72
15 -93 -12 -9 -72 -27 -132 -42 -112 -27 -185 -28 -291 -4 -21 5 -40 7 -42 6
-1 -2 12 -30 31 -62 19 -33 46 -93 61 -134 15 -41 50 -131 78 -200 63 -158 73
-197 59 -233 -23 -59 -124 -71 -216 -25 -88 45 -119 80 -170 195 -113 258
-195 367 -340 455 -130 79 -284 113 -479 106 -112 -5 -145 -10 -229 -37 -191
-63 -318 -178 -371 -338 -67 -205 -53 -381 42 -529 61 -94 119 -137 308 -230
293 -144 384 -215 384 -299 0 -42 -18 -65 -67 -87 -131 -58 -487 -12 -700 92
-132 63 -191 104 -341 234 -250 216 -768 621 -776 607 -12 -18 -44 -239 -51
-341 -12 -196 25 -467 91 -670 46 -140 168 -384 249 -495 184 -256 409 -449
685 -588 382 -192 783 -248 1204 -167 284 55 588 198 813 382 40 32 75 64 79
70 15 23 -252 -5 -668 -72 -231 -37 -344 -53 -494 -67 -57 -5 -77 0 -265 62
-112 37 -229 79 -259 92 -30 14 -211 60 -403 103 -310 70 -353 82 -406 115
-62 37 -111 86 -111 110 0 22 28 44 73 55 23 7 67 19 97 27 40 12 83 14 166
11 l113 -5 -24 37 c-29 46 -44 82 -100 236 -24 66 -57 150 -73 185 -51 113
-51 166 0 198 37 23 123 16 185 -15 87 -42 122 -85 180 -216 74 -169 127 -254
207 -334 81 -81 166 -131 281 -167 291 -91 622 -30 801 148 69 68 104 130 134
236 61 222 17 423 -125 565 -56 55 -85 73 -266 163 -269 132 -359 204 -359
287 0 92 137 130 366 100 322 -42 484 -117 749 -346 147 -127 389 -323 605
-488 125 -96 146 -109 152 -93 3 10 17 77 29 147 28 163 31 423 5 586 -154
978 -1042 1670 -2021 1577z"/>
<path d="M5104 3210 c-279 -73 -444 -305 -420 -591 20 -236 139 -396 391 -521
39 -19 135 -63 214 -98 79 -35 169 -80 200 -101 124 -83 143 -212 45 -306 -60
-58 -126 -77 -253 -71 -82 3 -105 8 -161 36 -63 30 -148 107 -205 185 l-20 27
-167 -97 c-93 -54 -168 -102 -168 -108 0 -20 73 -121 134 -183 104 -107 243
-182 410 -219 102 -23 328 -22 431 1 334 74 517 325 476 653 -18 152 -67 250
-171 347 -85 78 -187 138 -395 231 -217 98 -262 122 -303 169 -53 60 -57 167
-9 230 39 50 89 71 172 70 109 0 181 -48 261 -173 5 -6 324 202 324 212 0 5
-20 38 -45 72 -87 122 -197 199 -341 235 -104 27 -299 27 -400 0z"/>
<path d="M14830 3161 c-121 -37 -190 -127 -190 -249 0 -151 131 -265 285 -249
270 28 309 415 51 492 -53 16 -106 18 -146 6z"/>
<path d="M13850 2780 l0 -330 -95 0 -95 0 0 -170 0 -170 94 0 94 0 4 -312 c4
-284 6 -319 25 -375 43 -129 116 -213 222 -254 69 -27 247 -37 335 -19 58 12
185 70 205 94 9 10 -6 45 -65 155 l-76 141 -28 -20 c-44 -32 -121 -46 -156
-29 -55 27 -59 48 -62 347 l-3 272 165 0 166 0 0 170 0 170 -165 0 -165 0 0
330 0 330 -200 0 -200 0 0 -330z"/>
<path d="M6845 2469 c-134 -14 -226 -65 -307 -169 l-28 -35 0 93 0 92 -200 0
-200 0 0 -960 0 -960 200 0 200 0 0 402 0 403 46 -52 c96 -111 281 -164 449
-130 119 25 197 67 285 156 119 119 179 256 195 447 13 146 -26 323 -97 442
-80 135 -245 253 -375 267 -32 3 -67 7 -78 9 -11 1 -51 -1 -90 -5z m62 -374
c53 -22 108 -79 134 -139 31 -68 33 -206 5 -285 -49 -142 -214 -209 -370 -150
-110 41 -170 146 -170 296 0 74 4 89 35 150 39 76 88 117 166 139 57 16 147
11 200 -11z"/>
<path d="M8154 2468 c-92 -7 -213 -45 -294 -91 -30 -17 -91 -67 -136 -111
-128 -128 -184 -265 -184 -457 0 -320 187 -553 515 -640 63 -17 111 -21 225
-22 163 -1 261 16 368 64 65 29 182 106 182 120 0 11 -222 250 -229 246 -56
-31 -168 -77 -209 -86 -105 -22 -229 -9 -307 32 -34 17 -97 81 -114 114 -28
56 -53 53 470 53 l482 0 -6 123 c-6 138 -23 210 -74 313 -121 249 -364 370
-689 342z m197 -339 c55 -17 108 -65 135 -123 43 -92 62 -86 -257 -86 l-281 0
7 28 c19 79 88 153 167 177 54 17 178 19 229 4z"/>
<path d="M9590 2469 c-105 -9 -162 -25 -260 -72 -120 -56 -232 -168 -290 -289
-112 -233 -84 -513 72 -714 79 -101 210 -185 355 -226 62 -17 104 -22 208 -21
146 0 220 15 323 65 60 30 192 131 199 154 3 9 -115 119 -249 232 -16 13 -22
11 -60 -20 -24 -19 -57 -42 -73 -51 -49 -25 -139 -38 -195 -27 -146 28 -219
122 -228 291 -7 144 37 238 139 294 47 26 64 30 134 30 67 0 89 -4 137 -28 31
-15 71 -44 87 -63 20 -22 36 -32 44 -28 20 13 266 214 272 223 10 17 -151 156
-217 189 -110 54 -242 74 -398 61z"/>
<path d="M10964 2469 c-103 -13 -200 -72 -265 -162 l-29 -40 0 91 0 92 -200 0
-200 0 0 -640 0 -640 199 0 200 0 3 388 c3 346 5 391 21 427 24 54 45 75 97
98 30 13 66 20 111 20 87 0 135 -24 169 -84 l25 -44 3 -402 3 -403 200 0 199
0 0 368 c0 410 5 449 63 509 39 41 85 57 167 56 70 0 110 -15 147 -55 46 -49
47 -62 51 -480 l3 -398 200 0 199 0 0 408 c-1 459 -7 517 -64 638 -58 123
-172 215 -303 244 -81 19 -229 14 -304 -9 -78 -24 -167 -81 -228 -144 l-44
-46 -27 42 c-56 87 -148 150 -240 162 -86 11 -95 12 -156 4z"/>
<path d="M12940 2469 c-154 -10 -253 -43 -364 -123 -111 -79 -112 -65 17 -201
l112 -118 58 40 c106 75 276 96 359 45 40 -25 75 -82 84 -139 l6 -41 -233 -5
c-250 -5 -302 -13 -400 -62 -74 -38 -123 -87 -155 -157 -26 -57 -29 -72 -28
-168 0 -83 5 -117 23 -161 49 -128 168 -209 336 -230 177 -23 307 17 408 124
l59 62 -7 -82 -8 -83 202 0 201 0 0 418 c0 384 -2 425 -20 496 -39 152 -122
261 -248 325 -107 54 -223 71 -402 60z m270 -819 c0 -120 -92 -190 -249 -190
-133 0 -202 72 -159 166 23 51 74 64 251 64 l157 0 0 -40z"/>
<path d="M15820 2469 c-98 -8 -178 -32 -271 -80 -146 -76 -260 -209 -310 -360
-21 -64 -24 -93 -24 -219 0 -126 3 -155 24 -219 51 -155 175 -296 325 -370
115 -57 196 -75 346 -74 144 0 218 15 325 67 70 35 196 137 194 159 0 10 -211
202 -254 231 -9 7 -24 0 -51 -24 -99 -87 -239 -109 -348 -56 -61 30 -93 65
-128 142 -32 71 -32 217 0 289 83 182 311 220 464 78 l47 -45 133 108 c73 59
137 111 142 115 15 13 -61 96 -136 149 -134 94 -278 127 -478 109z"/>
<path d="M14690 1810 l0 -640 205 0 205 0 0 640 0 640 -205 0 -205 0 0 -640z"/>
</g>
</svg>
